<?xml version="1.0" encoding="UTF-8" standalone="no"?>
<!-- Created with Inkscape (http://www.inkscape.org/) -->

<svg
   width="180"
   height="180"
   viewBox="0 0 47.625 47.625"
   version="1.1"
   id="svg5"
   inkscape:version="1.1 (c4e8f9ed74, 2021-05-24)"
   sodipodi:docname="logo.svg"
   xmlns:inkscape="http://www.inkscape.org/namespaces/inkscape"
   xmlns:sodipodi="http://sodipodi.sourceforge.net/DTD/sodipodi-0.dtd"
   xmlns="http://www.w3.org/2000/svg"
   xmlns:svg="http://www.w3.org/2000/svg">
  <sodipodi:namedview
     id="namedview7"
     pagecolor="#505050"
     bordercolor="#eeeeee"
     borderopacity="1"
     inkscape:pageshadow="0"
     inkscape:pageopacity="0"
     inkscape:pagecheckerboard="0"
     inkscape:document-units="px"
     showgrid="false"
     inkscape:zoom="3.5777778"
     inkscape:cx="135.13975"
     inkscape:cy="95.590062"
     inkscape:window-width="1886"
     inkscape:window-height="1023"
     inkscape:window-x="34"
     inkscape:window-y="30"
     inkscape:window-maximized="1"
     inkscape:current-layer="layer1" />
  <defs
     id="defs2" />
  <g
     inkscape:label="Camada 1"
     inkscape:groupmode="layer"
     id="layer1">
    <ellipse
       style="fill:#404e4d;fill-opacity:1;stroke-width:0.233978"
       id="path9558"
       cx="23.821566"
       cy="23.806118"
       rx="23.791382"
       ry="23.507999" />
    <ellipse
       style="fill:#609dc4;fill-opacity:1;stroke-width:0.212282"
       id="ellipse10174"
       cx="23.821566"
       cy="23.806118"
       rx="21.892624"
       ry="21.028839" />
    <path
       style="fill:#9c8849;fill-opacity:1;stroke-width:0.0579994"
       d="M 15.906269,13.527196 C 20.74689,6.7950723 24.72237,1.2771046 24.740668,1.2650447 c 0.0183,-0.012058 0.511695,0.7164543 1.096438,1.6189208 l 1.063162,1.6408534 -7.400016,10.1886401 c -4.07001,5.603752 -7.383936,10.196077 -7.364278,10.205167 0.01967,0.0091 5.683146,-1.236135 12.585533,-2.767162 l 12.549793,-2.783687 1.186531,1.798703 1.186531,1.798704 -0.101917,0.135201 c -0.05605,0.07437 -3.919964,5.440273 -8.586469,11.924245 -4.666506,6.483976 -8.586852,11.930253 -8.711882,12.102845 l -0.22733,0.3138 -1.075638,-1.63235 -1.075639,-1.632349 2.309268,-3.056732 2.30927,-3.05673 -3.450523,-5.262174 -3.450521,-5.262171 -4.044136,0.899532 -4.0441357,0.899531 -1.1947881,-1.785207 -1.1947798,-1.785211 z m 10.739174,21.570735 c 0.09425,-0.132352 2.01338,-2.746613 4.264744,-5.809473 2.251363,-3.062859 4.065915,-5.574169 4.032335,-5.580687 -0.03358,-0.0065 -3.169736,0.678191 -6.969239,1.521581 -3.799504,0.843388 -6.956424,1.543245 -7.015378,1.555238 -0.101594,0.02068 0.03942,0.244266 2.704498,4.28789 l 2.811687,4.266085 z"
       id="path10274" />
    <path
       style="fill:#d3c7a2;fill-opacity:1;stroke-width:0.0579994"
       d="M 15.906269,12.998029 C 20.74689,6.2659056 24.72237,0.74793789 24.740668,0.73587804 c 0.0183,-0.0120582 0.511695,0.71645426 1.096438,1.61892076 l 1.063162,1.6408534 -7.400016,10.1886398 c -4.07001,5.603752 -7.383936,10.196077 -7.364278,10.205167 0.01967,0.0091 5.683146,-1.236135 12.585533,-2.767162 L 37.2713,18.83861 l 1.186531,1.798703 1.186531,1.798704 -0.101917,0.135201 c -0.05605,0.07437 -3.919964,5.440273 -8.586469,11.924245 -4.666506,6.483976 -8.586852,11.930253 -8.711882,12.102845 l -0.22733,0.3138 -1.075638,-1.63235 -1.075639,-1.632349 2.309268,-3.056732 2.30927,-3.05673 -3.450523,-5.262174 -3.450521,-5.262171 -4.044136,0.899532 -4.0441353,0.899531 -1.1947885,-1.785207 -1.1947798,-1.785211 z m 10.739174,21.570735 c 0.09425,-0.132352 2.01338,-2.746613 4.264744,-5.809473 2.251363,-3.062859 4.065915,-5.574169 4.032335,-5.580687 -0.03358,-0.0065 -3.169736,0.678191 -6.969239,1.521581 -3.799504,0.843388 -6.956424,1.543245 -7.015378,1.555238 -0.101594,0.02068 0.03942,0.244266 2.704498,4.28789 l 2.811687,4.266085 z"
       id="path7538" />
  </g>
</svg>
